<svg width="169" height="42" viewBox="0 0 169 42" fill="none" xmlns="http://www.w3.org/2000/svg">
<g id="Logo">
<path id="Type" fill-rule="evenodd" clip-rule="evenodd" d="M64.3997 15.1629C63.3357 16.5739 62.8037 18.4705 62.8037 20.8414C62.8037 23.3626 63.3473 25.3286 64.4344 26.7396C65.5215 28.1505 66.9556 28.856 68.7481 28.856C70.3441 28.856 71.6394 28.2315 72.6571 26.9593L72.8537 28.5784H76.5314V6.95171H72.449V14.7119C71.4775 13.6016 70.2516 13.0465 68.7713 13.0465C66.9209 13.0465 65.4637 13.752 64.3997 15.1629ZM67.6263 24.4265C67.1175 23.6632 66.8746 22.5761 66.8746 21.1421C66.8746 17.9617 67.8576 16.3657 69.8121 16.3541C71.0611 16.3541 71.9401 16.8861 72.449 17.9501V23.9755C71.9285 25.0395 71.0496 25.5715 69.789 25.5715C68.8407 25.5715 68.1236 25.1898 67.6263 24.4265ZM79.8398 7.88839C79.4351 8.28161 79.2269 8.7789 79.2269 9.39185C79.2269 10.0164 79.4351 10.5252 79.863 10.9069C80.2793 11.3001 80.8344 11.4967 81.5168 11.4967C82.1991 11.4967 82.7543 11.3001 83.1706 10.9069C83.587 10.5137 83.7951 10.0164 83.7951 9.39185C83.7951 8.79047 83.587 8.28161 83.1706 7.88839C82.7543 7.49518 82.1991 7.29858 81.5052 7.29858C80.7998 7.29858 80.2446 7.49518 79.8398 7.88839ZM79.4698 28.5783H83.5523V13.3355H79.4698V28.5783ZM94.7239 24.3687C94.7239 23.8714 94.4811 23.4782 93.9838 23.189C93.4865 22.8999 92.7 22.6455 91.6129 22.4258C87.993 21.6625 86.1773 20.1243 86.1773 17.8113C86.1773 16.4582 86.7324 15.3364 87.8543 14.4227C88.9761 13.5206 90.4448 13.0696 92.249 13.0696C94.1804 13.0696 95.7301 13.5206 96.8866 14.4343C98.0431 15.3479 98.6214 16.5276 98.6214 17.9848H94.5505C94.5505 17.4065 94.3654 16.9208 93.9838 16.5391C93.6137 16.1575 93.0239 15.9724 92.2259 15.9724C91.5435 15.9724 91.0115 16.1228 90.6299 16.435C90.2598 16.7473 90.0632 17.1405 90.0632 17.6147C90.0632 18.0657 90.2714 18.4242 90.6993 18.7018C91.1272 18.9794 91.8442 19.2222 92.8619 19.4188C93.8797 19.6154 94.7239 19.8467 95.4294 20.1012C97.5805 20.8876 98.6561 22.2523 98.6561 24.1952C98.6561 25.583 98.0547 26.7048 96.8635 27.5722C95.6723 28.428 94.1341 28.8559 92.249 28.8559C90.9768 28.8559 89.8435 28.6246 88.8489 28.1736C87.8543 27.7226 87.0794 27.098 86.5243 26.3001C85.9576 25.5021 85.68 24.6462 85.68 23.7326H89.5543C89.589 24.4496 89.855 25.0048 90.3523 25.398C90.8496 25.7796 91.5204 25.9762 92.3531 25.9762C93.1279 25.9762 93.7178 25.8259 94.1225 25.5368C94.5158 25.2245 94.7239 24.8429 94.7239 24.3687ZM109.029 24.9472C108.567 25.3635 107.954 25.5717 107.202 25.5717C106.219 25.5717 105.49 25.2363 104.993 24.5655C104.519 23.8716 104.276 22.7498 104.276 21.177V20.7491C104.276 19.1993 104.519 18.0775 105.005 17.3836C105.49 16.6897 106.207 16.3428 107.156 16.3428C107.931 16.3428 108.543 16.5856 109.018 17.0829C109.48 17.5802 109.723 18.2163 109.746 19.0143H113.563C113.54 17.2217 112.95 15.7761 111.805 14.689C110.66 13.6018 109.133 13.0583 107.225 13.0583C105.051 13.0583 103.339 13.7522 102.09 15.1516C100.841 16.5509 100.217 18.4245 100.217 20.7722V21.0266C100.217 23.4668 100.841 25.3751 102.102 26.7629C103.362 28.1507 105.086 28.8446 107.26 28.8446C108.428 28.8446 109.492 28.6133 110.452 28.1391C111.423 27.665 112.175 26.9942 112.73 26.1384C113.285 25.2826 113.563 24.3342 113.574 23.3049H109.758C109.746 23.9873 109.503 24.5308 109.029 24.9472ZM114.835 20.8182C114.835 19.3032 115.124 17.9616 115.702 16.782C116.28 15.6024 117.124 14.6887 118.212 14.0411C119.31 13.3934 120.571 13.0696 122.017 13.0696C124.075 13.0696 125.752 13.6941 127.047 14.9547C128.343 16.2153 129.071 17.9154 129.222 20.078L129.245 21.1189C129.245 23.455 128.597 25.3286 127.29 26.7395C125.983 28.1505 124.237 28.8559 122.04 28.8559C119.842 28.8559 118.096 28.1505 116.777 26.7395C115.471 25.3286 114.811 23.4203 114.811 20.9917V20.8182H114.835ZM118.905 21.1073C118.905 22.553 119.183 23.6632 119.727 24.4265C120.27 25.1898 121.045 25.5715 122.063 25.5715C123.046 25.5715 123.821 25.1898 124.376 24.4381C124.931 23.6863 125.209 22.472 125.209 20.8066C125.209 19.3841 124.931 18.2855 124.376 17.5106C123.821 16.7357 123.046 16.3425 122.04 16.3425C121.045 16.3425 120.27 16.7357 119.727 17.5106C119.171 18.2739 118.905 19.4767 118.905 21.1073ZM139.666 13.3354L136.832 23.6052L133.999 13.3354H129.743L134.889 28.5666H138.787L143.922 13.3354H139.666ZM152.098 28.8562C149.866 28.8562 148.05 28.1739 146.639 26.7976C145.24 25.4329 144.534 23.6057 144.534 21.3158V20.9226C144.534 19.396 144.835 18.0197 145.425 16.817C146.014 15.6142 146.859 14.6774 147.934 14.0298C149.021 13.3821 150.259 13.0468 151.647 13.0468C153.728 13.0468 155.371 13.706 156.562 15.0128C157.753 16.3312 158.354 18.1932 158.354 20.5987V22.2757H148.651C148.778 23.2703 149.183 24.0683 149.842 24.6696C150.502 25.271 151.346 25.5717 152.352 25.5717C153.925 25.5717 155.139 25.005 156.03 23.8717L158.031 26.1153C157.418 26.9827 156.597 27.6534 155.556 28.1392C154.515 28.6133 153.358 28.8562 152.098 28.8562ZM151.635 16.3428C150.826 16.3428 150.178 16.6204 149.669 17.1639C149.172 17.7075 148.848 18.4939 148.709 19.5116H154.364V19.1878C154.341 18.2857 154.098 17.5803 153.636 17.083C153.162 16.5857 152.491 16.3428 151.635 16.3428ZM167.329 17.0367C167.756 17.0367 168.242 17.0829 168.797 17.1523L168.844 13.2433C168.439 13.1161 168.022 13.0583 167.571 13.0583C166.126 13.0583 165.004 13.7522 164.183 15.1516L164.067 13.3358H160.228V28.567H164.299V18.598C164.784 17.5571 165.79 17.0367 167.329 17.0367Z" fill="white"/>
<g id="Icon">
<g id="Discover simbol">
<g id="Group">
<path id="Vector" opacity="0.3" d="M35.8406 35.8405C27.6975 44.0009 14.4953 44.0529 6.28294 35.9964C12.0871 41.6619 21.391 41.6099 27.1431 35.8578C32.9299 30.0537 32.9299 20.6458 27.1258 14.859C21.3217 9.05486 11.9138 9.07218 6.12701 14.8763C0.392205 20.6111 0.357554 29.8977 6.00573 35.7019C-2.05072 27.4895 -1.99874 14.3219 6.14434 6.16146C14.3394 -2.05095 27.6282 -2.05095 35.8406 6.14413C44.0357 14.3392 44.0357 27.6454 35.8406 35.8405Z" fill="white"/>
<path id="Vector_2" opacity="0.6" d="M27.1435 35.8406C21.3914 41.5927 12.0875 41.6447 6.28335 35.9792C6.23137 35.9272 6.19672 35.8926 6.14474 35.8406L6.12742 35.8233C9.54059 39.2191 15.0502 39.2191 18.4633 35.8233C21.8592 32.4101 21.8592 26.9005 18.4633 23.4873C15.0502 20.1088 9.52326 20.1088 6.12742 23.5047C2.7489 26.8832 2.73157 32.3408 6.05812 35.754C6.05812 35.754 6.05812 35.754 6.04079 35.7366C6.04079 35.7366 6.04079 35.7366 6.02346 35.7193L6.00614 35.702L5.98881 35.6847C0.357949 29.8979 0.3926 20.6113 6.14474 14.8591C11.9489 9.05498 21.3394 9.05498 27.1435 14.8418C32.9477 20.6459 32.9477 30.0538 27.1435 35.8406Z" fill="white"/>
<path id="Vector_3" opacity="0.4" d="M6.12559 35.84C6.09121 35.8056 6.05684 35.7712 6.02246 35.7368L6.03965 35.754C6.07403 35.7884 6.1084 35.8228 6.12559 35.84Z" fill="white"/>
<path id="Vector_4" d="M18.4624 35.8403C15.0666 39.2535 9.5397 39.2535 6.12653 35.8403C6.09188 35.8057 6.07456 35.7883 6.03991 35.7537C2.71337 32.3405 2.7307 26.8829 6.10921 23.5043C9.50505 20.0912 15.032 20.0912 18.4451 23.5043C21.8583 26.9002 21.8583 32.4271 18.4624 35.8403Z" fill="white"/>
</g>
</g>
</g>
</g>
</svg>
